<?xml version="1.0" encoding="UTF-8" standalone="no"?>
<!-- Created with Inkscape (http://www.inkscape.org/) -->

<svg
   xmlns:dc="http://purl.org/dc/elements/1.1/"
   xmlns:cc="http://creativecommons.org/ns#"
   xmlns:rdf="http://www.w3.org/1999/02/22-rdf-syntax-ns#"
   xmlns:svg="http://www.w3.org/2000/svg"
   xmlns="http://www.w3.org/2000/svg"
   xmlns:sodipodi="http://sodipodi.sourceforge.net/DTD/sodipodi-0.dtd"
   xmlns:inkscape="http://www.inkscape.org/namespaces/inkscape"
   width="446"
   height="147"
   id="svg2"
   version="1.1"
   inkscape:version="0.48.4 r9939"
   sodipodi:docname="New document 1">
  <defs
     id="defs4" />
  <sodipodi:namedview
     id="base"
     pagecolor="#ffffff"
     bordercolor="#666666"
     borderopacity="1.0"
     inkscape:pageopacity="0.0"
     inkscape:pageshadow="2"
     inkscape:zoom="0.35"
     inkscape:cx="252.28571"
     inkscape:cy="-272.2143"
     inkscape:document-units="px"
     inkscape:current-layer="layer1"
     showgrid="false"
     fit-margin-top="0"
     fit-margin-left="0"
     fit-margin-right="0"
     fit-margin-bottom="0"
     inkscape:window-width="1600"
     inkscape:window-height="847"
     inkscape:window-x="-8"
     inkscape:window-y="-8"
     inkscape:window-maximized="1" />
  <metadata
     id="metadata7">
    <rdf:RDF>
      <cc:Work
         rdf:about="">
        <dc:format>image/svg+xml</dc:format>
        <dc:type
           rdf:resource="http://purl.org/dc/dcmitype/StillImage" />
        <dc:title></dc:title>
      </cc:Work>
    </rdf:RDF>
  </metadata>
  <g
     inkscape:label="Layer 1"
     inkscape:groupmode="layer"
     id="layer1"
     transform="translate(-122.71429,-113.14789)">
    <g
       id="g2996"
       transform="translate(42.85714,5.7142857)">
      <path
         style="fill:#f4f4f4"
         d="m 79.857147,180.9336 0,-73.5 223.000003,0 223,0 0,73.5 0,73.5 -223,0 -223.000003,0 0,-73.5 z m 402.972073,52.51989 c 4.07025,-2.89828 4.23607,-3.2579 17.61081,-38.19467 6.38512,-16.67887 11.83494,-30.69074 12.11071,-31.13748 0.27577,-0.44675 -1.44975,-0.67175 -3.83448,-0.5 l -4.33589,0.31226 -7.51161,20.1847 c -4.13139,11.10159 -7.75053,20.41551 -8.04255,20.69761 -0.29201,0.28209 -4.0586,-8.91353 -8.3702,-20.43471 l -7.83927,-20.9476 -3.87979,0 c -2.13389,0 -3.8798,0.18784 -3.8798,0.41743 0,0.22958 4.47693,11.97435 9.94874,26.09948 l 9.94875,25.68206 -2.01736,5.39187 c -2.4128,6.44878 -4.88453,8.40916 -10.60264,8.40916 -4.25299,0 -4.27749,0.0208 -4.27749,3.63889 l 0,3.63889 5.95698,-0.54016 c 3.82644,-0.34697 7.05072,-1.31898 9.01509,-2.71773 z M 154.11625,222.58436 c 0.24225,-0.90792 14.75142,-23.65681 32.24259,-50.5531 29.70826,-45.68258 31.6799,-48.99171 29.94571,-50.25978 -1.49059,-1.08994 -2.0867,-1.10919 -3.02506,-0.0977 -0.64276,0.69288 -14.12267,21.28478 -29.95536,45.75978 -15.8327,24.475 -29.37128,45.14044 -30.08575,45.92319 -1.10671,1.21248 -1.43845,1.06442 -2.24066,-1 -2.90852,-7.48491 -17.47332,-21.15086 -35.92138,-33.70453 -9.73937,-6.62752 -10.81328,-7.12668 -11.95969,-5.55888 -0.69273,0.94737 -1.24384,1.97397 -1.2247,2.28135 0.0191,0.30738 4.85664,3.79836 10.75,7.75773 13.25916,8.90799 27.09006,20.88704 31.09224,26.92922 1.66106,2.50775 3.51148,6.92644 4.11204,9.81932 0.99129,4.77503 1.31023,5.21804 3.46074,4.80694 1.30285,-0.24905 2.56703,-1.19567 2.80928,-2.10358 z m 160.75473,-6.24715 c 3.58593,-0.76904 6.13843,-2.12253 8.54922,-4.53333 l 3.43695,-3.43695 0,4.03334 0,4.03333 4,0 4,0 0,-19.2566 c 0,-10.59113 -0.44248,-20.79946 -0.9833,-22.68516 -1.27169,-4.43413 -6.41022,-9.69909 -10.94461,-11.21389 -4.57399,-1.52803 -13.97448,-1.49685 -21.32209,0.0707 l -5.75,1.22673 0,3.9291 c 0,2.161 0.1125,3.92887 0.25,3.9286 0.1375,-2.8e-4 2.61733,-0.90028 5.51073,-2 5.64288,-2.14475 15.36835,-2.66132 19.62627,-1.04246 3.10012,1.17866 5.613,5.8113 5.613,10.34789 l 0,3.40424 -9.87711,0.54426 c -10.93288,0.60244 -16.94164,2.64812 -21.12289,7.1913 -2.19281,2.38261 -2.5,3.61818 -2.5,10.05527 0,6.44883 0.3032,7.66297 2.5,10.01126 2.93361,3.1359 5.37437,4.56439 9.5,5.56003 4.26136,1.02839 3.9077,1.03462 9.51383,-0.16768 z m -11.62473,-8.24535 c -2.24779,-1.93347 -2.72243,-3.16444 -2.72243,-7.0606 0,-3.78719 0.53054,-5.24986 2.68711,-7.40827 2.51869,-2.52083 3.34391,-2.71076 13.16666,-3.03042 l 10.47956,-0.34102 0,4.12314 c 0,5.49716 -2.03288,10.06735 -5.94075,13.3556 -2.69248,2.26557 -4.16281,2.70331 -9.08021,2.70331 -4.71122,0 -6.40401,-0.46148 -8.58994,-2.34174 z m 79.32319,6.21935 c 5.49201,-2.63305 8.2888,-7.18939 8.28397,-13.49564 -0.004,-5.72682 -2.58283,-10.61329 -6.70204,-12.70116 -1.53682,-0.77895 -6.3212,-2.19028 -10.63195,-3.13627 -9.01639,-1.97865 -11.66227,-4.01417 -11.66227,-8.97196 0,-5.35361 3.56525,-7.57258 12.16698,-7.57258 3.86867,0 8.47363,0.65865 10.48726,1.5 4.61184,1.92695 4.34576,2.04145 4.34576,-1.87004 0,-3.16664 -0.28669,-3.45049 -4.75,-4.70307 -2.6125,-0.73317 -7.74679,-1.30689 -11.40954,-1.27494 -11.09882,0.0968 -17.57714,4.83226 -18.5618,13.5681 -0.993,8.80987 3.78973,13.54635 16.54386,16.38387 9.36545,2.08362 12.62215,4.69221 12.47198,9.98995 -0.0805,2.84066 -0.80342,4.44714 -2.75758,6.12803 -3.45974,2.97594 -13.13881,3.13853 -21.0619,0.35379 l -5.47502,-1.92432 0,3.8526 c 0,3.84607 0.009,3.8544 5.25,4.91447 2.8875,0.58403 6.15,1.26037 7.25,1.50297 3.64983,0.80497 11.94091,-0.49595 16.21229,-2.5438 z m -106.71229,-1.37761 0,-3.5 -7.06574,0 c -3.88616,0 -7.91647,-0.4553 -8.95625,-1.01177 -2.98054,-1.59513 -3.96643,-7.36248 -3.97243,-23.23823 l -0.006,-14.75 10,0 10,0 0,-3.5 0,-3.5 -10,0 -10,0 0,-7.5 0,-7.5 -3.5,0 -3.5,0 0,7.5 0,7.5 -7,0 -7,0 0,3.5 0,3.5 7,0 7,0 0,17.59887 c 0,25.75092 1.60131,27.9338 20.75,28.28613 l 6.25,0.115 0,-3.5 z m 145,-7.30383 0,-10.80384 3.39192,-3.28757 3.39191,-3.28758 9.77328,13.68619 c 5.3753,7.5274 10.32661,13.89852 11.00292,14.15804 0.67631,0.25952 2.81225,0.32937 4.74653,0.15522 l 3.51689,-0.31663 -11.79034,-16.21762 -11.79035,-16.21761 10.12862,-10.01986 10.12862,-10.01985 -4.44732,-0.0125 c -4.32035,-0.0122 -4.77716,0.30867 -16,11.23747 l -11.55268,11.25 -0.26989,-21.25 -0.26989,-21.25 -3.98011,0 -3.98011,0 0,36.5 0,36.5 4,0 4,0 0,-10.80383 z"
         id="path3014"
         inkscape:connector-curvature="0" />
      <path
         style="fill:#e5e5e5"
         d="m 79.857147,180.9336 0,-73.5 223.000003,0 223,0 0,73.5 0,73.5 -223,0 -223.000003,0 0,-73.5 z M 478.914,235.43435 c 1.95626,-0.54345 4.75118,-2.23471 6.21092,-3.75835 2.35496,-2.45805 9.08975,-18.96718 25.28938,-61.9924 l 2.35322,-6.25 -4.22591,0 -4.22591,0 -7.47928,20.4848 c -4.1136,11.26664 -7.74331,20.49164 -8.06602,20.5 -0.32271,0.008 -3.98248,-9.0973 -8.13283,-20.2348 l -7.54608,-20.25 -4.11717,-0.3075 c -2.26444,-0.16912 -4.11523,0.0559 -4.11286,0.5 0.002,0.44413 3.87321,10.7075 8.60187,22.8075 12.6967,32.4892 11.70384,28.33705 8.43084,35.2578 -3.04424,6.43705 -4.1692,7.2422 -10.11881,7.2422 -3.81129,0 -3.91821,0.0955 -3.91821,3.5 0,3.37877 0.12989,3.49981 3.75,3.49442 2.0625,-0.003 5.35058,-0.45022 7.30685,-0.99367 z M 152.8223,224.4336 c 0.44087,0 1.03166,-0.7875 1.31287,-1.75 0.28121,-0.9625 14.879,-23.8 32.43954,-50.75 27.78192,-42.63666 31.72398,-49.1582 30.35534,-50.2182 -0.86509,-0.67 -2.0229,-1.20918 -2.5729,-1.19817 -0.55,0.011 -14.67728,21.16298 -31.39396,47.00436 l -30.39395,46.98434 -2.7683,-4.78616 c -4.46245,-7.71522 -19.523,-21.24485 -35.92644,-32.2745 -7.39137,-4.96995 -9.42145,-5.92119 -10.58169,-4.95828 -2.583,2.1437 -1.54385,3.54316 6.54111,8.80916 10.74789,7.00045 21.1432,15.49191 29.17278,23.82992 6.44243,6.6899 7.49031,8.66847 9.34685,17.64845 0.42014,2.03217 1.02572,2.6727 2.12726,2.25 0.84695,-0.32501 1.90062,-0.59092 2.34149,-0.59092 z m 167.10293,-9.53521 c 1.51543,-0.78366 3.69506,-2.61951 4.84362,-4.07967 l 2.0883,-2.65484 0,4.13486 0,4.13486 4,0 4,0 0,-20.34272 c 0,-19.34474 -0.1137,-20.55772 -2.31765,-24.72546 -4.48647,-8.48405 -16.79266,-11.62552 -31.43235,-8.02392 -5.24504,1.29036 -5.25,1.29537 -5.25,5.29883 0,3.42678 0.25349,3.90191 1.75,3.28006 8.83151,-3.66983 19.26896,-4.56258 24.10497,-2.06179 3.24143,1.67621 5.14503,5.36551 5.14503,9.97138 l 0,3.30228 -10.57754,0.599 c -17.39617,0.98513 -23.42917,5.44766 -23.41587,17.32037 0.009,8.37176 3.82541,13.56162 11.38375,15.4821 4.0357,1.02541 12.17402,0.17651 15.67774,-1.63534 z m -15.27344,-6.01337 c -3.71232,-2.01511 -5.2073,-7.52803 -3.28743,-12.12291 1.96167,-4.69495 6.33968,-6.32851 16.96067,-6.32851 l 8.53212,0 0,4.03984 c 0,5.27556 -3.26326,11.54021 -7.29034,13.99565 -3.8296,2.33503 -11.01063,2.53529 -14.91502,0.41593 z m 78.20536,5.64018 c 5.39796,-2.723 8,-7.31059 8,-14.10463 0,-9.30607 -3.47359,-12.39994 -17.33773,-15.44243 -4.47323,-0.98166 -8.65861,-2.54088 -9.75,-3.63227 -2.43161,-2.43161 -2.45269,-7.02331 -0.0459,-9.99559 2.50539,-3.09402 12.8209,-3.89271 19.75614,-1.52963 2.60358,0.88712 4.87861,1.61295 5.05563,1.61295 0.17702,0 0.32186,-1.55766 0.32186,-3.46146 0,-3.21667 -0.30054,-3.54664 -4.25,-4.66607 -6.84745,-1.94085 -17.60855,-1.61854 -22.18547,0.66448 -5.99023,2.98799 -8.06453,6.48949 -8.06453,13.61322 0,5.62479 0.22906,6.21342 3.63099,9.33107 2.6096,2.39152 5.28194,3.66255 9.5,4.51846 8.58715,1.74246 14.21335,4.46068 15.33409,7.40845 1.35023,3.55138 -0.54715,8.32437 -4.02384,10.12223 -4.02108,2.07939 -12.96561,1.83228 -19.18051,-0.52988 -2.8934,-1.09972 -5.37323,-1.99972 -5.51073,-2 -0.1375,-2.7e-4 -0.25,1.79093 -0.25,3.98045 0,3.30152 0.38634,4.07791 2.26367,4.54909 10.77838,2.7052 20.8313,2.54035 26.73633,-0.43844 z m -107,-1.5916 0,-3.5 -7.30887,0 c -4.35046,0 -8.01564,-0.5168 -9.05497,-1.27678 -2.6733,-1.95476 -3.58621,-7.88696 -3.6123,-23.47322 l -0.0239,-14.25 10,0 10,0 0,-3.5 0,-3.5 -10,0 -10,0 0,-7.5 0,-7.5 -3.5,0 -3.5,0 0,7.5 0,7.5 -7,0 -7,0 0,3.5 0,3.5 7,0 7,0 0,18.04966 c 0,14.14326 0.32688,18.68177 1.51035,20.97036 2.51417,4.86187 7.54395,6.70784 18.73965,6.87762 l 6.75,0.10236 0,-3.5 z m 145,-7.19528 c 0,-10.24436 0.11329,-10.81353 2.68709,-13.5 1.4779,-1.5426 3.1654,-2.79545 3.75,-2.78413 0.5846,0.0113 5.33791,6.07706 10.56291,13.47941 l 9.5,13.45881 4.80902,0.0206 c 3.58016,0.0153 4.61936,-0.29882 4.06682,-1.22941 -0.40821,-0.6875 -5.60977,-7.90679 -11.55902,-16.04287 -5.94925,-8.13608 -10.81682,-15.15561 -10.81682,-15.59896 0,-0.44334 4.47564,-5.14905 9.94587,-10.45712 l 9.94587,-9.65105 -4.53394,0 c -4.3954,0 -4.89031,0.33558 -16.19587,10.9818 l -11.66193,10.9818 -0.26989,-20.9818 -0.26989,-20.9818 -3.98011,0 -3.98011,0 0,36.5 0,36.5 4,0 4,0 0,-10.69528 z"
         id="path3012"
         inkscape:connector-curvature="0" />
      <path
         style="fill:#d6d6d6"
         d="m 79.857147,180.9336 0,-73.5 223.000003,0 223,0 0,73.5 0,73.5 -223,0 -223.000003,0 0,-73.5 z m 400.282123,54.12888 c 1.76983,-0.75412 4.2287,-2.46883 5.46414,-3.81047 1.23745,-1.34383 7.68257,-16.55901 14.35101,-33.87888 6.65762,-17.29174 12.33245,-32.00203 12.61073,-32.68953 0.35957,-0.88829 -0.77889,-1.25 -3.93429,-1.25 l -4.44027,0 -7.35431,20.05692 c -4.04488,11.03131 -7.65215,20.24099 -8.01616,20.46597 -0.36402,0.22497 -4.05188,-8.68814 -8.19524,-19.80692 l -7.53339,-20.21597 -4.11717,-0.3075 c -2.26444,-0.16912 -4.11717,0.11907 -4.11717,0.64042 0,0.52136 4.4408,12.34804 9.86844,26.28151 l 9.86844,25.3336 -1.93579,4.52599 c -2.96601,6.93469 -5.39312,9.02598 -10.4754,9.02598 -4.27698,0 -4.32569,0.0394 -4.32569,3.5 0,3.48516 0.0192,3.5 4.53212,3.5 2.49266,0 5.98016,-0.617 7.75,-1.37112 z M 152.27536,224.82661 c 0.86998,-0.33384 1.58179,-0.96509 1.58179,-1.40278 0,-0.43768 10.64558,-17.15204 23.65685,-37.14301 13.01128,-19.99097 27.6044,-42.42222 32.42917,-49.84722 7.796,-11.99751 8.59198,-13.63912 7.15202,-14.75 -0.89117,-0.6875 -2.09679,-1.24007 -2.67917,-1.22792 -0.58238,0.0121 -14.77284,21.16809 -31.53435,47.01322 l -30.47548,46.99116 -2.20485,-4.33842 c -3.74035,-7.35979 -21.81479,-23.40885 -39.64266,-35.20039 l -5.79846,-3.83517 -2.05384,2.05384 -2.05384,2.05384 10.55879,7.18727 c 11.42998,7.78027 25.17286,19.34555 30.80012,25.91973 3.40426,3.97712 5.8457,9.75409 5.8457,13.83219 0,3.10466 1.29295,3.89294 4.41821,2.69366 z m 163.85912,-8.45314 c 2.07754,-0.57693 5.34004,-2.42104 7.25,-4.09801 l 3.47267,-3.04904 0,3.60359 0,3.60359 4.65508,0 4.65507,0 -0.59219,-20.08966 c -0.53978,-18.31153 -0.79691,-20.50214 -2.90508,-24.75 -3.43858,-6.92857 -8.89992,-9.66034 -19.31288,-9.66034 -4.4,0 -10.1375,0.62098 -12.75,1.37996 -4.73585,1.37585 -4.75,1.39304 -4.75,5.77032 l 0,4.39037 4.25,-2.186 c 2.87067,-1.47653 6.71662,-2.33338 11.85013,-2.64013 7.27069,-0.43445 7.74094,-0.32834 10.84832,2.44811 2.5108,2.24341 3.36541,3.94228 3.76457,7.48363 l 0.51639,4.58137 -10.36471,0.4691 c -15.97602,0.72307 -22.47314,4.57205 -24.31807,14.4064 -2.40689,12.82981 9.74597,22.22033 23.7307,18.33674 z m -10.77733,-7.14769 c -3.22645,-1.85037 -4.43431,-4.04212 -4.4682,-8.10792 -0.0674,-8.08845 4.1688,-10.68426 17.43608,-10.68426 l 8.53212,0 -0.022,3.75 c -0.0316,5.39659 -3.28899,11.85947 -7.1699,14.2256 -3.68975,2.24958 -11.07455,2.67104 -14.30814,0.81658 z m 74.10889,6.73133 c 8.76865,-2.60401 13.70432,-10.93292 11.44686,-19.31648 -1.86445,-6.92404 -5.18893,-9.21762 -16.9272,-11.67816 -9.72095,-2.03768 -13.15726,-5.29404 -11.70262,-11.08978 1.26662,-5.0466 12.25858,-7.08614 21.07407,-3.91025 5.4355,1.9582 5.5,1.93556 5.5,-1.93101 0,-2.9365 -0.44485,-3.55912 -3.25,-4.54874 -5.21334,-1.8392 -14.85982,-2.38246 -19.58035,-1.10271 -6.57781,1.78327 -11.25001,6.58699 -11.88487,12.21939 -1.13052,10.03 2.77492,14.48536 15.2293,17.37373 10.58935,2.45583 13.48592,4.59144 13.48592,9.94303 0,8.86396 -12.48043,11.168 -27.25,5.03068 -1.49907,-0.62292 -1.75,-0.14381 -1.75,3.34126 0,3.86184 0.19043,4.1178 3.75,5.04047 9.22636,2.39154 15.33118,2.56709 21.85889,0.62857 z m -103.60889,-3.02351 0,-3.5 -6.86514,0 c -5.43108,0 -7.41554,-0.43294 -9.5,-2.07258 l -2.63486,-2.07258 0,-17.42742 0,-17.42742 9.5,0 9.5,0 0,-3.5 0,-3.5 -9.5,0 -9.5,0 0,-7.5 0,-7.5 -4.5,0 -4.5,0 0,7.5 0,7.5 -7,0 -7,0 0,3.5 0,3.5 7,0 7,0 0,14.95078 c 0,27.25696 2.32768,30.72986 20.75,30.95903 l 7.25,0.0902 0,-3.5 z m 145,-7.41111 0,-10.9111 3.07673,-2.5889 c 1.69219,-1.42389 3.37969,-2.57168 3.75,-2.55065 0.3703,0.021 4.93008,6.09604 10.13285,13.5 l 9.45958,13.46176 4.79042,0 c 2.63473,0 4.79042,-0.21795 4.79042,-0.48434 0,-0.26638 -4.85799,-7.12888 -10.79553,-15.25 -5.93754,-8.12111 -11.19486,-15.41839 -11.68294,-16.21617 -0.66701,-1.09027 1.70374,-3.88059 9.54553,-11.2349 l 10.43294,-9.78439 -5.02379,-0.0151 -5.02379,-0.0151 -11.72621,11.08221 -11.72621,11.0822 0,-21.0822 0,-21.08221 -4,0 -4,0 0,36.5 0,36.5 4,0 4,0 0,-10.91111 z"
         id="path3010"
         inkscape:connector-curvature="0" />
      <path
         style="fill:#c8c8c8"
         d="m 79.857147,180.9336 0,-73.5 223.000003,0 223,0 0,73.5 0,73.5 -223,0 -223.000003,0 0,-73.5 z m 401.632983,53.86987 c 2.00338,-0.95067 4.42638,-3.34733 5.81317,-5.75 1.80911,-3.13435 14.34889,-35.03746 25.3011,-64.36987 0.33003,-0.88389 -0.85048,-1.25 -4.03061,-1.25 l -4.49733,0 -6.75721,18.25 c -3.71647,10.0375 -7.17916,19.375 -7.69487,20.75 -0.81726,2.179 -1.92493,-0.13223 -8.62659,-18 l -7.68894,-20.5 -4.66104,-0.30214 -4.66104,-0.30215 4.75847,12.30215 c 2.61717,6.76617 7.15756,18.49712 10.08977,26.06877 5.22602,13.49482 5.30418,13.85022 3.95893,18 -2.04413,6.30566 -5.86856,9.73337 -10.85987,9.73337 -3.99267,0 -4.07692,0.0723 -4.07692,3.5 l 0,3.5 5.09887,0 c 2.80438,0 6.64473,-0.73356 8.53411,-1.63013 z M 152.87107,224.1836 c 0.60103,-0.6875 15.68355,-23.75 33.51672,-51.25 l 32.42394,-50 -2.22729,-1.70229 c -1.71851,-1.31343 -2.47485,-1.42765 -3.31103,-0.5 -0.59606,0.66126 -14.5391,21.96748 -30.98453,47.34716 -29.77947,45.95766 -29.90586,46.13279 -31.15316,43.16633 -2.79407,-6.64512 -20.99824,-23.19193 -38.35308,-34.8613 l -8.74236,-5.87835 -1.67147,2.55099 c -0.91931,1.40304 -1.52301,2.64851 -1.34157,2.76771 22.26441,14.62631 37.01926,26.73386 42.48781,34.86471 1.73684,2.58241 3.47625,6.61898 3.86535,8.97016 0.3891,2.35118 0.9071,4.61238 1.15112,5.02488 0.68938,1.16538 3.12942,0.88424 4.33955,-0.5 z m 164.08686,-7.88411 c 1.86957,-0.62376 4.86172,-2.51203 6.64922,-4.19616 l 3.25,-3.06206 0,3.69616 0,3.69617 4.65422,0 4.65421,0 -0.5769,-20.34708 c -0.6417,-22.63268 -1.35531,-25.74077 -6.87542,-29.9459 -6.32988,-4.82199 -17.90602,-5.89023 -29.10611,-2.68589 -3.60206,1.03055 -3.75,1.24634 -3.75,5.46964 l 0,4.39677 4.75,-2.16365 c 3.53014,-1.60799 6.7338,-2.17138 12.4747,-2.19377 7.02961,-0.0274 7.96179,0.20674 10.35957,2.60218 1.79485,1.79309 2.79602,4.06201 3.14034,7.11681 l 0.50547,4.48451 -10.91852,0.44986 c -12.08175,0.49779 -17.59907,2.56519 -21.72298,8.13985 -3.10928,4.20311 -2.94383,13.97239 0.31404,18.5432 4.34282,6.09299 14.05232,8.71712 22.19816,5.99936 z m -10.74378,-6.85747 c -3.16423,-1.27692 -5.36125,-4.98219 -5.3252,-8.98093 0.0635,-7.03967 5.44925,-10.02749 18.07537,-10.02749 l 8.17141,0 -0.60034,5.06894 c -0.75375,6.36422 -3.72152,11.24919 -8.09513,13.3246 -3.65981,1.73669 -8.80503,1.99546 -12.22611,0.61488 z m 72.92033,6.93145 c 8.30567,-2.3065 13.74999,-10.65026 12.23135,-18.7453 -1.41621,-7.54903 -4.9845,-10.27038 -16.69741,-12.73427 -11.14067,-2.34351 -14.31173,-5.42366 -11.80762,-11.46911 2.13632,-5.15754 11.82161,-6.56931 21.03943,-3.06682 l 5.06452,1.92437 -0.3038,-4.17437 c -0.29844,-4.10072 -0.39202,-4.19734 -5.3038,-5.4763 -6.31244,-1.64367 -16.9481,-1.02833 -21.76933,1.25949 -4.92195,2.33562 -7.73067,7.04432 -7.73067,12.96013 0,9.1595 3.47344,12.38741 16.9569,15.75823 8.67597,2.16896 12.0431,4.77588 12.0431,9.32408 0,7.54847 -9.95015,10.57184 -21.71845,6.59918 -3.42015,-1.15455 -6.48353,-2.09918 -6.8075,-2.09918 -0.32398,0 -0.45067,1.9125 -0.28155,4.25 l 0.3075,4.25 5.5,1.15357 c 7.12065,1.49349 14.5338,1.60359 19.27733,0.2863 z m -103.27733,-3.43987 0,-3.5 -7.04545,0 c -6.14703,0 -7.35846,-0.313 -9.5,-2.45454 -2.41407,-2.41407 -2.45455,-2.7357 -2.45455,-19.5 l 0,-17.04546 9.5,0 9.5,0 0,-3.5 0,-3.5 -9.5,0 -9.5,0 0,-7.5 0,-7.5 -4.5,0 -4.5,0 0,7.5 0,7.5 -7,0 -7,0 0,3.5 0,3.5 7,0 7,0 0.0239,15.75 c 0.0267,17.61932 0.7726,22.33999 4.08753,25.86857 2.99384,3.1868 6.73594,4.18182 16.13861,4.29124 l 7.74996,0.0902 0,-3.5 z m 145.0722,-7.25 0.0722,-10.75 3.35813,-2.78763 3.35812,-2.78763 9.6672,13.53763 9.66719,13.53763 4.90248,0 c 2.69637,0 4.90249,-0.2792 4.90249,-0.62045 0,-0.47637 -16.50684,-23.51764 -22.33135,-31.17149 -0.72788,-0.95649 1.71911,-3.86464 9.4241,-11.20015 l 10.40724,-9.9082 -5.39944,-0.0499 -5.39945,-0.0498 -10.65532,10.5 c -5.86043,5.775 -10.96818,10.5 -11.35056,10.5 -0.38237,0 -0.69523,-9.225 -0.69523,-20.5 l 0,-20.5 -4,0 -4,0 0,36.5 0,36.5 4,0 4,0 0.0722,-10.75 z"
         id="path3008"
         inkscape:connector-curvature="0" />
      <path
         style="fill:#b6b6b6"
         d="m 79.857147,180.9336 0,-73.5 223.000003,0 223,0 0,73.5 0,73.5 -223,0 -223.000003,0 0,-73.5 z m 401.994643,53.74845 c 2.0397,-1.02051 4.4036,-3.41379 5.67789,-5.74845 1.88187,-3.44782 25.32747,-63.61609 25.32747,-64.99769 0,-0.27627 -1.97686,-0.50231 -4.39301,-0.50231 -3.25251,0 -4.57336,0.45433 -5.0877,1.75 -0.38208,0.9625 -3.6055,9.625 -7.16316,19.25 -3.55766,9.625 -6.81771,17.85201 -7.24454,18.28224 -0.42684,0.43023 -4.11406,-8.22827 -8.19383,-19.24112 l -7.41776,-20.02336 -4.72525,-0.009 c -4.49197,-0.008 -4.68242,0.1022 -3.85766,2.24112 0.47717,1.2375 4.96603,12.76408 9.97525,25.61462 5.00921,12.85055 9.10766,24.00301 9.10766,24.78326 0,2.49094 -4.9262,11.24227 -6.93291,12.31623 -1.06458,0.56975 -3.54019,1.03591 -5.50135,1.03591 -3.40846,0 -3.56574,0.15438 -3.56574,3.5 l 0,3.5 5.25,-0.002 c 2.99612,-8.9e-4 6.75028,-0.75218 8.74464,-1.75 z M 153.35715,224.66829 c 0.55,-0.40408 1.08587,-1.21731 1.19083,-1.80719 0.10496,-0.58987 14.65662,-23.30151 32.33703,-50.47032 l 32.1462,-49.39782 -2.25501,-1.82599 c -1.83764,-1.48804 -2.48046,-1.58607 -3.4732,-0.52968 -0.67,0.71297 -14.61977,21.93069 -30.99949,47.1505 l -29.78129,45.85419 -1.48464,-2.85419 c -4.10763,-7.89686 -19.39052,-21.80723 -37.28007,-33.93206 l -9.40036,-6.37119 -1.72777,2.22453 c -0.95027,1.22349 -1.7221,2.44953 -1.71519,2.72453 0.007,0.275 4.8344,3.73566 10.72776,7.69036 12.4205,8.3347 27.55985,21.31347 31.5093,27.01252 1.50659,2.17403 3.27465,6.50525 3.92902,9.62495 0.97896,4.66723 1.55181,5.66946 3.23331,5.65686 1.12396,-0.008 2.49357,-0.34592 3.04357,-0.75 z m 164.1849,-8.29602 c 1.54831,-0.58374 4.2776,-2.47201 6.0651,-4.19617 l 3.25,-3.13483 0,3.69616 0,3.69617 4.60105,0 4.60104,0 -0.3805,-20.75 c -0.3124,-17.03667 -0.68197,-21.31029 -2.06512,-23.88088 -2.27678,-4.23139 -7.03021,-8.07331 -11.53752,-9.32511 -4.75248,-1.3199 -14.30239,-1.17962 -20.71895,0.30433 l -5,1.15634 -0.30346,4.71508 -0.30346,4.71507 4.46033,-1.97301 c 6.46732,-2.8608 15.25028,-3.57208 19.93555,-1.61445 3.99735,1.6702 6.71104,6.16692 6.71104,11.12051 0,2.51807 -0.0489,2.53212 -8.8185,2.53212 -10.53092,0 -17.80009,1.94443 -21.40827,5.72649 -8.03035,8.41734 -5.59174,22.27577 4.72677,26.86187 3.63725,1.61659 12.32731,1.80467 16.1849,0.35031 z m -11.3279,-6.87275 c -5.27237,-2.26913 -6.98711,-9.72386 -3.31151,-14.39662 2.5951,-3.29913 7.49806,-4.65667 16.8438,-4.66372 l 7.38929,-0.006 -0.60034,5.06894 c -0.65661,5.54402 -3.36649,10.69741 -6.6978,12.73722 -2.7645,1.69274 -10.87485,2.44271 -13.62344,1.25976 z m 75.143,6.04404 c 9.0771,-4.18936 12.71553,-12.87169 9.06018,-21.62018 -1.89765,-4.54171 -6.23542,-7.03585 -15.84923,-9.11304 -9.4087,-2.03287 -12.04428,-3.84396 -12.04428,-8.27646 0,-7.29685 9.32779,-10.16211 20.63408,-6.33827 l 5.80075,1.96185 -0.30075,-4.07333 c -0.2866,-3.88175 -0.5124,-4.13692 -4.80075,-5.42541 -6.7471,-2.02725 -18.75943,-1.15496 -23.37462,1.69739 -5.22541,3.22948 -6.93785,7.08087 -6.40762,14.41117 0.38629,5.34044 0.80707,6.32368 3.76197,8.79054 2.15952,1.80285 5.97171,3.40101 10.86351,4.55426 9.19113,2.16681 13.53803,4.86226 13.97942,8.66846 1.0288,8.8715 -11.79223,12.29075 -24.69978,6.58721 -2.40741,-1.06378 -4.54491,-1.93415 -4.75,-1.93415 -0.20508,0 -0.37288,2.00766 -0.37288,4.46146 0,4.81113 -0.30363,4.5923 9.5,6.84664 5.20111,1.19599 15.17543,0.56701 19,-1.19814 z m -104.5,-2.50407 0,-3.39412 -8.09796,-0.36775 c -11.86912,-0.539 -11.90204,-0.59973 -11.90204,-21.9548 l 0,-16.88922 10,0 10,0 0,-3.5 0,-3.5 -10,0 -10,0 0,-7.5 0,-7.5 -4.5,0 -4.5,0 0,7.5 0,7.5 -7,0 -7,0 0,3.5 0,3.5 6.92058,0 6.92058,0 0.32942,18.42955 c 0.29975,16.76987 0.51593,18.68354 2.4005,21.25 3.48956,4.75215 7.86809,6.31715 17.67892,6.3189 l 8.75,0.002 0,-3.39411 z m 144,-6.90972 0,-10.30384 3.35959,-3.25624 3.35959,-3.25624 9.68322,13.56008 9.68322,13.56007 5.49655,0 5.49656,0 -5.3458,-7.25 c -2.94019,-3.9875 -8.41631,-11.44303 -12.16916,-16.56784 l -6.82336,-9.31783 10.3798,-9.88231 10.37979,-9.88231 -5.51787,-0.0499 -5.51786,-0.0498 -10.46427,10.5 c -5.75535,5.775 -10.80981,10.5 -11.23213,10.5 -0.42233,0 -0.76787,-9.225 -0.76787,-20.5 l 0,-20.5 -4.5,0 -4.5,0 0,36.5 0,36.5 4.5,0 4.5,0 0,-10.30383 z"
         id="path3006"
         inkscape:connector-curvature="0" />
      <path
         style="fill:#f6a96d"
         d="m 79.857147,180.9336 0,-73.5 223.000003,0 223,0 0,73.5 0,73.5 -223,0 -223.000003,0 0,-73.5 z m 402.695673,53.544 c 1.75761,-1.07168 3.87162,-2.9825 4.69779,-4.24626 1.54711,-2.36655 25.60654,-64.37972 25.60654,-66.00085 0,-0.49856 -2.10271,-0.76932 -4.67268,-0.60168 l -4.67268,0.30479 -7.09319,19.18253 c -3.90125,10.5504 -7.31121,19.40056 -7.57768,19.66704 -0.26648,0.26647 -3.81693,-8.47817 -7.88991,-19.43254 l -7.4054,-19.91703 -4.95122,0 c -3.55319,0 -4.81416,0.35295 -4.46581,1.25 0.26698,0.6875 4.84553,12.47904 10.17456,26.20342 l 9.68916,24.95341 -2.36441,5.5404 c -2.62259,6.14538 -5.1861,8.01509 -11.02074,8.03803 -3.61624,0.0142 -3.75,0.13958 -3.75,3.51474 l 0,3.5 6.25,-0.004 c 4.42982,-0.003 7.18067,-0.5712 9.44567,-1.95226 z M 154.83953,222.97994 c 0.51308,-1.34952 15.18477,-24.38355 32.60374,-51.18675 l 31.67086,-48.73308 -2.23927,-1.81325 c -1.2316,-0.9973 -2.52693,-1.79538 -2.87849,-1.77353 -0.35157,0.0219 -14.32624,21.17532 -31.05482,47.00771 l -30.4156,46.96798 -2.40307,-4.25771 c -4.36917,-7.74124 -18.01819,-20.00647 -35.37516,-31.78873 l -10.39057,-7.05333 -1.75,2.15296 c -0.9625,1.18413 -1.75,2.51451 -1.75,2.9564 0,0.44189 2.3591,2.25501 5.24245,4.02915 12.89684,7.93551 29.87966,22.04527 36.38498,30.22958 2.23453,2.81124 3.73144,6.13238 4.49204,9.96626 1.07388,5.41299 1.31039,5.75 4.03538,5.75 2.15291,0 3.13369,-0.62873 3.82753,-2.45366 z m 164.99138,-7.53295 c 2.14174,-1.09264 4.59881,-2.99277 5.46016,-4.22251 1.5414,-2.20065 1.56608,-2.17722 1.56608,1.48661 l 0,3.72251 4.5724,0 4.57241,0 -0.32241,-20.75 c -0.30853,-19.85706 -0.42723,-20.93303 -2.75835,-25.00321 -3.59696,-6.28038 -10.12694,-9.27161 -20.01039,-9.16631 -4.15451,0.0443 -9.57866,0.60676 -12.05366,1.25 -4.46931,1.16154 -4.50208,1.20192 -4.80479,5.91952 -0.16764,2.6125 -0.11234,4.75 0.12288,4.75 0.23522,0 2.54262,-0.93554 5.12755,-2.07898 4.8685,-2.15357 14.00142,-2.9716 18.68165,-1.67332 3.28364,0.91088 5.41596,4.08932 6.31556,9.41401 l 0.69573,4.11804 -11.31929,0.37933 c -9.78532,0.32792 -11.90923,0.71446 -15.6725,2.85227 -10.76482,6.11521 -10.93024,22.66024 -0.28826,28.83115 4.93113,2.85939 14.68294,2.94223 20.11523,0.17089 z m -13.97376,-6.71686 c -6.73743,-3.45829 -6.47364,-12.85167 0.45443,-16.18166 1.58497,-0.76183 6.9171,-1.61522 11.84917,-1.89644 l 8.96741,-0.51129 -0.71489,4.89643 c -1.28702,8.81522 -5.70236,13.85924 -13.05612,14.91515 -2.80416,0.40264 -5.04636,0.0373 -7.5,-1.22219 z m 76.6773,6.61764 c 5.56267,-2.69284 8.5213,-6.92566 9.10789,-13.03035 0.93935,-9.77605 -3.54825,-14.8177 -15.52929,-17.44656 -11.49413,-2.52203 -13.2559,-3.64373 -13.2559,-8.43989 0,-4.50067 2.05962,-6.40386 8.12951,-7.51208 3.24476,-0.59242 11.62273,0.9049 17.18441,3.07121 1.60766,0.6262 1.77823,0.21135 1.5,-3.64826 -0.29737,-4.12528 -0.52474,-4.41804 -4.31392,-5.55467 -2.2,-0.65993 -7.27695,-1.23445 -11.28212,-1.27672 -11.69551,-0.12343 -17.98945,3.46399 -20.2514,11.54288 -2.40102,8.57559 2.23029,16.09283 11.32899,18.3885 15.23423,3.84371 18.82526,6.3903 17.34242,12.29841 -1.58495,6.31492 -12.64127,8.10754 -23.63789,3.83253 -3.025,-1.17599 -5.63716,-2.13839 -5.80479,-2.13867 -0.16764,-2.7e-4 -0.16764,2.11766 0,4.70653 0.30188,4.66213 0.34772,4.71843 4.80479,5.90183 7.70552,2.04589 19.71436,1.70783 24.6773,-0.69469 z m -105.6773,-2.41417 0,-3.5 -5.85078,0 c -7.55438,0 -12.04351,-1.59177 -13.22063,-4.68782 -0.51072,-1.34331 -0.92859,-9.61308 -0.92859,-18.37728 l 0,-15.9349 10,0 10,0 0,-3.5 0,-3.5 -10,0 -10,0 0,-7.5 0,-7.5 -4.5,0 -4.5,0 0,7.5 0,7.5 -7,0 -7,0 0,3.5 0,3.5 6.92209,0 6.92208,0 0.32792,18.75 c 0.29062,16.61795 0.54992,19.07787 2.28031,21.63338 2.8827,4.25727 6.83987,5.53323 17.2976,5.57748 l 9.25,0.0391 0,-3.5 z m 145,-7.31291 c 0,-10.53384 0.0722,-10.88205 2.7962,-13.49184 l 2.7962,-2.67893 9.4538,13.4536 9.4538,13.4536 5.81809,0.0382 5.8181,0.0382 -2.28065,-3.25 c -1.25436,-1.7875 -6.46,-8.93762 -11.5681,-15.88916 -5.10809,-6.95146 -9.28744,-13.08378 -9.28744,-13.62731 0,-0.54352 4.51143,-5.3184 10.02539,-10.61084 l 10.0254,-9.62261 -5.61375,0 -5.61374,0 -10.66165,10.04251 -10.66165,10.0425 -0.27071,-20.0425 -0.2707,-20.04251 -4.9793,0 -4.97929,0 0,36.5 0,36.5 5,0 5,0 0,-10.81291 z"
         id="path3004"
         inkscape:connector-curvature="0" />
      <path
         style="fill:#a7a7a7"
         d="m 79.857147,180.9336 0,-73.5 223.000003,0 223,0 0,73.5 0,73.5 -223,0 -223.000003,0 0,-73.5 z m 402.695673,53.544 c 1.75761,-1.07168 3.87162,-2.9825 4.69779,-4.24626 1.54711,-2.36655 25.60654,-64.37972 25.60654,-66.00085 0,-0.49856 -2.10271,-0.76932 -4.67268,-0.60168 l -4.67268,0.30479 -7.09319,19.18253 c -3.90125,10.5504 -7.31121,19.40056 -7.57768,19.66704 -0.26648,0.26647 -3.81693,-8.47817 -7.88991,-19.43254 l -7.4054,-19.91703 -4.95122,0 c -3.55319,0 -4.81416,0.35295 -4.46581,1.25 0.26698,0.6875 4.84553,12.47904 10.17456,26.20342 l 9.68916,24.95341 -2.36441,5.5404 c -2.62259,6.14538 -5.1861,8.01509 -11.02074,8.03803 -3.61624,0.0142 -3.75,0.13958 -3.75,3.51474 l 0,3.5 6.25,-0.004 c 4.42982,-0.003 7.18067,-0.5712 9.44567,-1.95226 z M 154.83953,222.97994 c 0.51308,-1.34952 15.18477,-24.38355 32.60374,-51.18675 l 31.67086,-48.73308 -2.23927,-1.81325 c -1.2316,-0.9973 -2.52693,-1.79538 -2.87849,-1.77353 -0.35157,0.0219 -14.32624,21.17532 -31.05482,47.00771 l -30.4156,46.96798 -2.40307,-4.25771 c -4.36917,-7.74124 -18.01819,-20.00647 -35.37516,-31.78873 l -10.39057,-7.05333 -1.75,2.15296 c -0.9625,1.18413 -1.75,2.51451 -1.75,2.9564 0,0.44189 2.3591,2.25501 5.24245,4.02915 12.89684,7.93551 29.87966,22.04527 36.38498,30.22958 2.23453,2.81124 3.73144,6.13238 4.49204,9.96626 1.07388,5.41299 1.31039,5.75 4.03538,5.75 2.15291,0 3.13369,-0.62873 3.82753,-2.45366 z m 164.99138,-7.53295 c 2.14174,-1.09264 4.59881,-2.99277 5.46016,-4.22251 1.5414,-2.20065 1.56608,-2.17722 1.56608,1.48661 l 0,3.72251 4.5724,0 4.57241,0 -0.32241,-20.75 c -0.30853,-19.85706 -0.42723,-20.93303 -2.75835,-25.00321 -3.59696,-6.28038 -10.12694,-9.27161 -20.01039,-9.16631 -4.15451,0.0443 -9.57866,0.60676 -12.05366,1.25 -4.46931,1.16154 -4.50208,1.20192 -4.80479,5.91952 -0.16764,2.6125 -0.11234,4.75 0.12288,4.75 0.23522,0 2.54262,-0.93554 5.12755,-2.07898 4.8685,-2.15357 14.00142,-2.9716 18.68165,-1.67332 3.28364,0.91088 5.41596,4.08932 6.31556,9.41401 l 0.69573,4.11804 -11.31929,0.37933 c -9.78532,0.32792 -11.90923,0.71446 -15.6725,2.85227 -10.76482,6.11521 -10.93024,22.66024 -0.28826,28.83115 4.93113,2.85939 14.68294,2.94223 20.11523,0.17089 z m -13.97376,-6.71686 c -6.73743,-3.45829 -6.47364,-12.85167 0.45443,-16.18166 1.58497,-0.76183 6.9171,-1.61522 11.84917,-1.89644 l 8.96741,-0.51129 -0.71489,4.89643 c -1.28702,8.81522 -5.70236,13.85924 -13.05612,14.91515 -2.80416,0.40264 -5.04636,0.0373 -7.5,-1.22219 z m 76.6773,6.61764 c 5.56267,-2.69284 8.5213,-6.92566 9.10789,-13.03035 0.93935,-9.77605 -3.54825,-14.8177 -15.52929,-17.44656 -11.49413,-2.52203 -13.2559,-3.64373 -13.2559,-8.43989 0,-4.50067 2.05962,-6.40386 8.12951,-7.51208 3.24476,-0.59242 11.62273,0.9049 17.18441,3.07121 1.60766,0.6262 1.77823,0.21135 1.5,-3.64826 -0.29737,-4.12528 -0.52474,-4.41804 -4.31392,-5.55467 -2.2,-0.65993 -7.27695,-1.23445 -11.28212,-1.27672 -11.69551,-0.12343 -17.98945,3.46399 -20.2514,11.54288 -2.40102,8.57559 2.23029,16.09283 11.32899,18.3885 15.23423,3.84371 18.82526,6.3903 17.34242,12.29841 -1.58495,6.31492 -12.64127,8.10754 -23.63789,3.83253 -3.025,-1.17599 -5.63716,-2.13839 -5.80479,-2.13867 -0.16764,-2.7e-4 -0.16764,2.11766 0,4.70653 0.30188,4.66213 0.34772,4.71843 4.80479,5.90183 7.70552,2.04589 19.71436,1.70783 24.6773,-0.69469 z m -105.6773,-2.41417 0,-3.5 -5.85078,0 c -7.55438,0 -12.04351,-1.59177 -13.22063,-4.68782 -0.51072,-1.34331 -0.92859,-9.61308 -0.92859,-18.37728 l 0,-15.9349 10,0 10,0 0,-3.5 0,-3.5 -10,0 -10,0 0,-7.5 0,-7.5 -4.5,0 -4.5,0 0,7.5 0,7.5 -7,0 -7,0 0,3.5 0,3.5 6.92209,0 6.92208,0 0.32792,18.75 c 0.29062,16.61795 0.54992,19.07787 2.28031,21.63338 2.8827,4.25727 6.83987,5.53323 17.2976,5.57748 l 9.25,0.0391 0,-3.5 z m 145,-7.31291 c 0,-10.53384 0.0722,-10.88205 2.7962,-13.49184 l 2.7962,-2.67893 9.4538,13.4536 9.4538,13.4536 5.81809,0.0382 5.8181,0.0382 -2.28065,-3.25 c -1.25436,-1.7875 -6.46,-8.93762 -11.5681,-15.88916 -5.10809,-6.95146 -9.28744,-13.08378 -9.28744,-13.62731 0,-0.54352 4.51143,-5.3184 10.02539,-10.61084 l 10.0254,-9.62261 -5.61375,0 -5.61374,0 -10.66165,10.04251 -10.66165,10.0425 -0.27071,-20.0425 -0.2707,-20.04251 -4.9793,0 -4.97929,0 0,36.5 0,36.5 5,0 5,0 0,-10.81291 z m -211,-56.68709 c 0.68469,-0.825 1.01989,-1.5 0.74489,-1.5 -0.275,0 -1.0602,0.675 -1.74489,1.5 -0.68469,0.825 -1.01989,1.5 -0.74489,1.5 0.275,0 1.0602,-0.675 1.74489,-1.5 z"
         id="path3002"
         inkscape:connector-curvature="0" />
      <path
         style="fill:#9f9f9f"
         d="m 79.857147,180.9336 0,-73.5 223.000003,0 223,0 0,73.5 0,73.5 -223,0 -223.000003,0 0,-73.5 z m 403.967123,52.87421 c 4.22055,-3.55136 5.10381,-5.48339 18.00055,-39.37421 6.17423,-16.225 11.43388,-29.8375 11.68812,-30.25 0.25423,-0.4125 -1.92681,-0.74389 -4.84677,-0.73642 l -5.30902,0.0136 -6.93617,19.04246 c -3.81489,10.47335 -7.23343,19.22618 -7.59676,19.45073 -0.36333,0.22455 -3.93162,-8.35067 -7.92953,-19.05604 l -7.26893,-19.46431 -4.88431,0 c -2.68636,0 -4.8843,0.217 -4.8843,0.48222 0,0.26522 4.48606,12.0267 9.96903,26.13661 l 9.96903,25.65438 -2.0615,4.79209 c -2.69784,6.2713 -4.82991,8.0624 -10.33598,8.68302 -4.38794,0.49458 -4.54058,0.62507 -4.54058,3.88173 l 0,3.36995 6.92327,0 c 6.01432,0 7.33298,-0.34474 10.04385,-2.62579 z M 152.46368,225.4336 c 0.79363,0 1.83015,-1.0125 2.30338,-2.25 0.47322,-1.2375 14.92997,-23.85 32.12611,-50.25 17.19614,-26.4 31.45141,-48.69615 31.67839,-49.54701 0.50912,-1.90852 -4.49286,-4.90092 -5.52945,-3.30795 -0.37673,0.57894 -14.1722,21.78712 -30.6566,47.1293 -29.61331,45.5258 -29.98627,46.0419 -31.19503,43.1671 -2.71512,-6.45735 -20.54074,-22.65012 -37.45151,-34.0209 -8.68735,-5.84136 -9.1216,-6.01352 -10.96373,-4.34642 -1.05495,0.95472 -1.91809,2.23773 -1.91809,2.85113 0,0.61341 5.2875,4.78865 11.75,9.27833 6.4625,4.48967 16.08392,12.23128 21.38095,17.20357 9.88406,9.27811 12.16779,12.85521 13.49129,21.13196 0.47779,2.98791 1.0351,3.92262 2.09608,3.51548 0.79489,-0.30502 2.09458,-0.55459 2.88821,-0.55459 z m 166.07837,-9.06362 c 1.54831,-0.58499 4.0526,-2.24418 5.5651,-3.68709 l 2.75,-2.62347 0,3.18709 c 0,3.11797 0.0991,3.18709 4.57114,3.18709 l 4.57114,0 -0.32114,-21.25 c -0.36449,-24.11862 -0.78356,-25.71141 -8.0259,-30.50427 -3.46202,-2.2911 -5.4641,-2.80555 -12.09151,-3.10704 -4.36838,-0.19872 -10.58879,0.20027 -13.82312,0.88665 l -5.88061,1.24795 0,4.86335 c 0,2.67485 0.1125,4.86313 0.25,4.86286 0.1375,-2.8e-4 2.5006,-0.85593 5.25133,-1.90144 14.02257,-5.32978 23.19784,-2.37526 25.04142,8.06356 l 0.64667,3.66162 -11.34471,0.33838 c -18.06309,0.53877 -23.34471,4.42152 -23.34471,17.16171 0,8.22295 2.05633,12.22297 7.71818,15.01359 3.779,1.86259 14.22599,2.20172 18.46672,0.59946 z m -10.41262,-6.77616 c -5.67838,-1.68288 -8.4027,-7.01694 -6.24471,-12.22679 1.81514,-4.38211 6.06418,-6.13274 16.3019,-6.71647 l 8.89536,-0.50719 -0.69849,4.39511 c -1.42291,8.95343 -5.71622,13.96521 -13.02634,15.20626 -1.65,0.28012 -4.00248,0.21221 -5.22772,-0.15092 z m 74.75776,5.58978 c 6.00094,-3.03158 8.96996,-7.66445 8.96996,-13.99675 0,-10.03644 -4.24053,-13.99427 -18.42522,-17.19686 -7.86815,-1.77645 -10.57478,-3.70127 -10.57478,-7.52025 0,-3.89038 2.02526,-6.02973 6.70317,-7.08078 4.28247,-0.96221 12.61713,0.0753 16.258,2.02386 3.43002,1.83569 4.16859,1.22302 3.84633,-3.19062 -0.29546,-4.04648 -0.48372,-4.26386 -4.8075,-5.55114 -6.89368,-2.05238 -21.12117,-1.28697 -24.61657,1.32433 -5.20442,3.88804 -6.85164,7.08054 -6.83097,13.23922 0.0309,9.2021 3.67132,12.78286 15.55773,15.30277 11.85686,2.51364 16.30514,7.16606 12.17456,12.73327 -2.98762,4.02673 -8.41612,5.48316 -15.21545,4.0822 -3.06311,-0.63113 -6.78445,-1.77115 -8.26964,-2.53338 -4.35311,-2.23411 -4.93633,-1.80799 -4.60445,3.36413 0.30271,4.7176 0.33548,4.75798 4.80479,5.91952 2.475,0.64324 8.11715,1.20574 12.53811,1.25 6.45777,0.0647 8.91376,-0.36188 12.49193,-2.16952 z m -106.03004,-2.11849 0,-3.3685 -7.57698,-0.48626 c -11.75708,-0.75452 -11.85033,-0.92063 -12.23887,-21.8019 l -0.31585,-16.97485 10.06585,0 10.06585,0 0,-3.5 0,-3.5 -10,0 -10,0 0,-7.5 0,-7.5 -4.5,0 -4.5,0 0,7.5 0,7.5 -7,0 -7,0 0,3.5 0,3.5 7,0 7,0 0.002,17.75 c 0.001,14.89544 0.28274,18.31287 1.75,21.25 2.64859,5.30187 7.00704,6.9966 17.99845,6.99845 l 9.24955,0.002 0,-3.36849 z m 145,-7.4572 c 0,-10.22017 0.13819,-10.95551 2.47068,-13.14677 1.8291,-1.71835 2.8029,-2.04257 3.75,-1.24853 0.70363,0.5899 5.10432,6.4989 9.77932,13.1311 l 8.5,12.05854 5.86501,0.0157 5.86501,0.0157 -1.7701,-2.70151 c -0.97355,-1.48583 -5.44491,-7.67333 -9.93636,-13.75 -4.49145,-6.07667 -9.01924,-12.35592 -10.06175,-13.9539 l -1.89549,-2.90541 10.46684,-9.81766 10.46684,-9.81766 -6,-0.0246 -6,-0.0246 -10.75,10.07953 -10.75,10.07959 0,-20.0819 0,-20.0819 -5,0 -5,0 0,36.5 0,36.5 5,0 5,0 0,-10.82569 z m -211,-56.67431 c 0.68469,-0.825 1.01989,-1.5 0.74489,-1.5 -0.275,0 -1.0602,0.675 -1.74489,1.5 -0.68469,0.825 -1.01989,1.5 -0.74489,1.5 0.275,0 1.0602,-0.675 1.74489,-1.5 z"
         id="path3000"
         inkscape:connector-curvature="0" />
      <path
         style="fill:#f2852f"
         d="m 91.857147,183.4336 0,-56 51.000003,0 c 28.05,0 51,0.20878 51,0.46395 0,0.25517 -1.67946,1.60517 -3.73213,3 l -3.73214,2.53605 -44.26787,0 -44.267863,0 0,50 0,50 54.500003,0 54.5,0 0.0153,-40.25 c 0.008,-22.1375 0.34592,-40.7 0.75,-41.25 0.40408,-0.55 1.74719,-1.85724 2.98469,-2.90499 l 2.25001,-1.90499 0,46.15499 0,46.15499 -60.5,0 -60.500003,0 0,-56 z"
         id="path2998"
         inkscape:connector-curvature="0" />
    </g>
  </g>
</svg>
