<?xml version="1.0" encoding="UTF-8" standalone="no"?>
<!-- Created with Inkscape (http://www.inkscape.org/) -->

<svg
   xmlns:dc="http://purl.org/dc/elements/1.1/"
   xmlns:cc="http://creativecommons.org/ns#"
   xmlns:rdf="http://www.w3.org/1999/02/22-rdf-syntax-ns#"
   xmlns:svg="http://www.w3.org/2000/svg"
   xmlns="http://www.w3.org/2000/svg"
   xmlns:sodipodi="http://sodipodi.sourceforge.net/DTD/sodipodi-0.dtd"
   xmlns:inkscape="http://www.inkscape.org/namespaces/inkscape"
   width="420.91129"
   height="118.92154"
   id="svg2"
   version="1.1"
   inkscape:version="0.48.4 r9939"
   sodipodi:docname="New document 1">
  <defs
     id="defs4" />
  <sodipodi:namedview
     id="base"
     pagecolor="#ffffff"
     bordercolor="#666666"
     borderopacity="1.0"
     inkscape:pageopacity="0.0"
     inkscape:pageshadow="2"
     inkscape:zoom="0.35"
     inkscape:cx="231.7143"
     inkscape:cy="-321.49999"
     inkscape:document-units="px"
     inkscape:current-layer="layer1"
     showgrid="false"
     fit-margin-top="0"
     fit-margin-left="0"
     fit-margin-right="0"
     fit-margin-bottom="0"
     inkscape:window-width="1600"
     inkscape:window-height="847"
     inkscape:window-x="-8"
     inkscape:window-y="-8"
     inkscape:window-maximized="1" />
  <metadata
     id="metadata7">
    <rdf:RDF>
      <cc:Work
         rdf:about="">
        <dc:format>image/svg+xml</dc:format>
        <dc:type
           rdf:resource="http://purl.org/dc/dcmitype/StillImage" />
        <dc:title></dc:title>
      </cc:Work>
    </rdf:RDF>
  </metadata>
  <g
     inkscape:label="Layer 1"
     inkscape:groupmode="layer"
     id="layer1"
     transform="translate(-143.2857,-91.940653)">
    <g
       id="g2996"
       transform="translate(-22.857143,5.7142886)">
      <path
         style="fill:#fefefe"
         d="m 166.14284,149.1479 0,-56.000004 51,0 c 28.05,0 51,0.208777 51,0.463949 0,0.255172 -1.67946,1.605172 -3.73213,3 l -3.73214,2.536051 -44.26787,0 -44.26786,0 0,50.000004 0,50 54.5,0 54.5,0 0.0153,-40.25 c 0.008,-22.1375 0.34592,-40.7 0.75,-41.25 0.40408,-0.55 1.74719,-1.85725 2.98469,-2.90499 l 2.25001,-1.90499 0,46.15499 0,46.15499 -60.5,0 -60.5,0 0,-56 z m 376,49.5 c 0,-3.46059 0.0487,-3.5 4.32569,-3.5 5.08599,0 7.50927,-2.09102 10.48433,-9.04681 l 1.94471,-4.54681 -9.87737,-25.42 c -5.43255,-13.981 -9.87736,-25.79831 -9.87736,-26.26069 0,-0.46238 1.85273,-0.70232 4.11717,-0.53319 l 4.11717,0.3075 7.53339,20.21596 c 4.14336,11.11878 7.83702,20.02832 8.20812,19.79896 0.3711,-0.22935 3.99624,-9.43904 8.05588,-20.46596 l 7.38114,-20.04896 4.24921,0 4.2492,0 -1.35678,3.75 c -10.03637,27.73939 -24.07874,62.18776 -26.29136,64.49722 -2.91414,3.04172 -7.74447,4.73862 -13.51314,4.7472 -3.62011,0.005 -3.75,-0.11565 -3.75,-3.49442 z M 222.58443,188.48882 c -1.92271,-8.50619 -2.80517,-10.47238 -6.67149,-14.86476 -6.53701,-7.42644 -19.95071,-18.75566 -30.34559,-25.62992 -5.18348,-3.42789 -9.42451,-6.76552 -9.42451,-7.41694 0,-0.65143 0.64605,-1.72059 1.43566,-2.37591 1.15984,-0.96258 3.12912,-0.0514 10.25,4.74264 17.17629,11.56373 31.82328,24.66405 36.25839,32.42965 l 2.7318,4.78319 30.41207,-46.95768 c 16.72665,-25.82672 30.86208,-46.964409 31.41208,-46.972634 0.55,-0.0082 1.71448,0.533235 2.58773,1.203243 1.38625,1.06361 -2.46421,7.436191 -30.343,50.218201 -17.5619,26.95 -32.16637,49.7875 -32.45436,50.75 -0.288,0.9625 -0.88434,1.75 -1.32521,1.75 -0.44087,0 -1.49455,0.26591 -2.3415,0.59092 -1.09618,0.42064 -1.72496,-0.22771 -2.18207,-2.25 z m 156.05841,-6.22215 c -8.17334,-2.10184 -11.49252,-6.61274 -11.49252,-15.61877 0,-12.05012 5.92428,-16.3547 23.76143,-17.26506 l 10.45752,-0.53373 -0.5149,-4.56817 c -0.39193,-3.47713 -1.25865,-5.2327 -3.62899,-7.3506 -2.67385,-2.38909 -3.96361,-2.78244 -9.1233,-2.78244 -3.44575,0 -8.43664,0.85317 -11.69956,2 -3.1297,1.1 -5.81846,2 -5.97502,2 -0.15656,0 -0.28466,-1.75512 -0.28466,-3.90026 0,-3.87313 0.0365,-3.90932 5.25,-5.20182 2.8875,-0.71586 8.65305,-1.29105 12.81232,-1.2782 9.83707,0.0304 15.3925,2.80762 18.68768,9.34217 2.11278,4.18977 2.25,5.69918 2.25,24.75 l 0,20.28811 -4,0 -4,0 0,-4.13486 0,-4.13486 -2.0883,2.65484 c -1.14856,1.46016 -3.32819,3.29601 -4.84362,4.07967 -3.475,1.797 -11.63906,2.66436 -15.56808,1.65398 z m 15.30814,-8.14317 c 3.88091,-2.36613 7.13829,-8.82902 7.1699,-14.2256 l 0.022,-3.75 -8.53212,0 c -10.61289,0 -14.99938,1.63447 -16.95638,6.31822 -1.96935,4.71333 -0.25162,10.09245 3.9885,12.49005 3.25216,1.83895 10.63043,1.40957 14.30814,-0.83267 z m 44.69186,8.36337 c -1.65,-0.25309 -4.6875,-0.90024 -6.75,-1.43811 -3.5586,-0.92803 -3.75,-1.1856 -3.75,-5.04639 0,-3.48508 0.25093,-3.96418 1.75,-3.34126 9.84835,4.09237 19.50779,4.64505 23.68982,1.35547 3.86324,-3.03883 4.89215,-6.32604 3.07809,-9.83404 -1.56546,-3.02728 -6.0943,-5.1695 -14.93368,-7.0639 -6.5598,-1.40585 -10.23406,-3.71304 -12.06807,-7.57794 -3.45998,-7.29136 -0.76672,-15.59026 6.42207,-19.78874 4.06808,-2.37588 17.15736,-2.77318 23.31177,-0.70757 3.35769,1.12694 3.75,1.61665 3.75,4.68106 0,1.88234 -0.14484,3.42245 -0.32186,3.42245 -0.17702,0 -2.45205,-0.72583 -5.05562,-1.61296 -6.93524,-2.36307 -17.25075,-1.56438 -19.75614,1.52964 -2.53126,3.12597 -2.36011,7.27086 0.40759,9.87097 1.298,1.21941 5.26804,2.81083 9.25,3.70793 9.58799,2.16009 12.12078,3.29351 14.99628,6.71085 2.01324,2.3926 2.47975,4.03352 2.47975,8.72241 0,6.85141 -2.57806,11.41998 -8,14.17675 -3.65047,1.85608 -13.33646,3.0254 -18.5,2.23338 z m -105,-1.26768 c -9.63593,-2.32544 -10.5,-4.54911 -10.5,-27.02163 l 0,-18.04966 -7,0 -7,0 0,-3.5 0,-3.5 7,0 7,0 0,-7.5 0,-7.5 3.5,0 3.5,0 0,7.5 0,7.5 10,0 10,0 0,3.5 0,3.5 -10.10083,0 -10.10083,0 0.35083,17.08711 0.35083,17.08712 2.80576,2.41288 c 2.38322,2.04951 3.85156,2.41289 9.75,2.41289 l 6.94424,0 0,3.5 0,3.5 -6.75,-0.10236 c -3.7125,-0.0563 -8.1,-0.42816 -9.75,-0.82635 z m 153.5,-35.57129 0,-36.5 4,0 4,0 0,21.0822 0,21.08221 11.72621,-11.08221 11.72621,-11.0822 5.02379,0.0151 5.02379,0.0151 -10.43294,9.78438 c -7.80322,7.31814 -10.21273,10.15 -9.5593,11.2349 0.48051,0.79778 5.43787,7.75051 11.01636,15.45051 5.5785,7.7 10.46924,14.5625 10.86832,15.25 0.53863,0.92791 -0.52398,1.25 -4.12384,1.25 l -4.84944,0 -9.45958,-13.46176 c -5.20277,-7.40396 -9.93789,-13.47896 -10.52249,-13.5 -0.5846,-0.021 -2.2721,1.22388 -3.75,2.76648 -2.5738,2.68647 -2.68709,3.25564 -2.68709,13.5 l 0,10.69529 -4,0 -4,0 0,-36.5 z"
         id="path3014"
         inkscape:connector-curvature="0" />
      <path
         style="fill:#fbfbfb"
         d="m 166.14284,149.1479 0,-56.000004 51,0 c 28.05,0 51,0.208777 51,0.463949 0,0.255172 -1.67946,1.605172 -3.73213,3 l -3.73214,2.536051 -44.26787,0 -44.26786,0 0,50.000004 0,50 54.5,0 54.5,0 0.0153,-40.25 c 0.008,-22.1375 0.34592,-40.7 0.75,-41.25 0.40408,-0.55 1.74719,-1.85725 2.98469,-2.90499 l 2.25001,-1.90499 0,46.15499 0,46.15499 -60.5,0 -60.5,0 0,-56 z m 387,43.5 c 0.68469,-0.825 1.46989,-1.5 1.74489,-1.5 0.275,0 -0.0602,0.675 -0.74489,1.5 -0.68469,0.825 -1.46989,1.5 -1.74489,1.5 -0.275,0 0.0602,-0.675 0.74489,-1.5 z m -182.59501,-14.75 -1.90499,-2.25 2.25,1.90499 c 1.2375,1.04774 2.25,2.06024 2.25,2.25 0,0.80025 -0.80479,0.20945 -2.59501,-1.90499 z m 84.09501,-4.75 c 0.99549,-1.1 2.03498,-2 2.30998,-2 0.275,0 -0.31449,0.9 -1.30998,2 -0.99549,1.1 -2.03498,2 -2.30998,2 -0.275,0 0.31449,-0.9 1.30998,-2 z m -242.54179,-3.75 -4.45821,-4.75 4.75,4.4582 c 4.41519,4.14397 5.20909,5.0418 4.45821,5.0418 -0.16049,0 -2.29799,-2.1375 -4.75,-4.75 z m 7.91423,1 c -1.24387,-1.58606 -1.2085,-1.62143 0.37756,-0.37756 0.9625,0.75485 1.75,1.54234 1.75,1.75 0,0.82303 -0.82119,0.2933 -2.12756,-1.37244 z m -9.46745,-9.5 -1.90499,-2.25 2.25,1.90498 c 2.11445,1.79022 2.70524,2.59502 1.90499,2.59502 -0.18976,0 -1.20226,-1.0125 -2.25,-2.25 z m -8.53255,-0.5 c -1.24387,-1.58606 -1.2085,-1.62143 0.37756,-0.37756 0.9625,0.75485 1.75,1.54234 1.75,1.75 0,0.82303 -0.82119,0.2933 -2.12756,-1.37244 z m 168.62756,-5.25 c 0.99549,-1.1 2.03498,-2 2.30998,-2 0.275,0 -0.31449,0.9 -1.30998,2 -0.99549,1.1 -2.03498,2 -2.30998,2 -0.275,0 0.31449,-0.9 1.30998,-2 z m -167.62756,-0.75 c -1.24387,-1.58606 -1.2085,-1.62143 0.37756,-0.37756 0.9625,0.75485 1.75,1.54234 1.75,1.75 0,0.82303 -0.82119,0.2933 -2.12756,-1.37244 z m 294.12756,-4.30364 c 0,-0.275 3.15,-3.62587 7,-7.44636 3.85,-3.8205 7,-6.72137 7,-6.44637 0,0.275 -3.15,3.62587 -7,7.44637 -3.85,3.82049 -7,6.72136 -7,6.44636 z M 397.01528,136.3979 c -1.24387,-1.58606 -1.2085,-1.62143 0.37756,-0.37756 1.66575,1.30637 2.19548,2.12756 1.37244,2.12756 -0.20765,0 -0.99515,-0.7875 -1.75,-1.75 z m 123.12756,0.65589 c 0,-0.275 1.8,-2.25765 4,-4.40589 2.2,-2.14825 4,-3.6809 4,-3.4059 0,0.275 -1.8,2.25765 -4,4.4059 -2.2,2.14824 -4,3.68089 -4,3.40589 z m -116.59501,-4.15589 -1.90499,-2.25 2.25,1.90498 c 1.2375,1.04775 2.25,2.06025 2.25,2.25 0,0.80026 -0.80479,0.20946 -2.59501,-1.90498 z"
         id="path3012"
         inkscape:connector-curvature="0" />
      <path
         style="fill:#f8f8f8"
         d="m 166.14284,149.1479 0,-56.000004 51,0 c 28.05,0 51,0.208777 51,0.463949 0,0.255172 -1.67946,1.605172 -3.73213,3 l -3.73214,2.536051 -44.26787,0 -44.26786,0 0,50.000004 0,50 54.5,0 54.5,0 0.0153,-40.25 c 0.008,-22.1375 0.34592,-40.7 0.75,-41.25 0.40408,-0.55 1.74719,-1.85725 2.98469,-2.90499 l 2.25001,-1.90499 0,46.15499 0,46.15499 -60.5,0 -60.5,0 0,-56 z m 387,43.5 c 0.68469,-0.825 1.46989,-1.5 1.74489,-1.5 0.275,0 -0.0602,0.675 -0.74489,1.5 -0.68469,0.825 -1.46989,1.5 -1.74489,1.5 -0.275,0 0.0602,-0.675 0.74489,-1.5 z m -182.59501,-14.75 -1.90499,-2.25 2.25,1.90499 c 1.2375,1.04774 2.25,2.06024 2.25,2.25 0,0.80025 -0.80479,0.20945 -2.59501,-1.90499 z m 84.09501,-4.75 c 0.99549,-1.1 2.03498,-2 2.30998,-2 0.275,0 -0.31449,0.9 -1.30998,2 -0.99549,1.1 -2.03498,2 -2.30998,2 -0.275,0 0.31449,-0.9 1.30998,-2 z m -242.55383,-3.75 -3.44617,-3.75 3.75,3.44616 c 2.0625,1.8954 3.75,3.5829 3.75,3.75 0,0.76363 -0.84622,0.0442 -4.05383,-3.44616 z m -10.07373,-9 c -1.24387,-1.58606 -1.2085,-1.62143 0.37756,-0.37756 0.9625,0.75485 1.75,1.54234 1.75,1.75 0,0.82303 -0.82119,0.2933 -2.12756,-1.37244 z m 8,0 c -1.24387,-1.58606 -1.2085,-1.62143 0.37756,-0.37756 0.9625,0.75485 1.75,1.54234 1.75,1.75 0,0.82303 -0.82119,0.2933 -2.12756,-1.37244 z m 160.62756,-5.25 c 0.99549,-1.1 2.03498,-2 2.30998,-2 0.275,0 -0.31449,0.9 -1.30998,2 -0.99549,1.1 -2.03498,2 -2.30998,2 -0.275,0 0.31449,-0.9 1.30998,-2 z m 126.5,-5.05364 c 0,-0.275 3.15,-3.62587 7,-7.44636 3.85,-3.8205 7,-6.72137 7,-6.44637 0,0.275 -3.15,3.62587 -7,7.44637 -3.85,3.82049 -7,6.72136 -7,6.44636 z M 397.01528,136.3979 c -1.24387,-1.58606 -1.2085,-1.62143 0.37756,-0.37756 1.66575,1.30637 2.19548,2.12756 1.37244,2.12756 -0.20765,0 -0.99515,-0.7875 -1.75,-1.75 z m 123.12756,0.65589 c 0,-0.275 1.8,-2.25765 4,-4.40589 2.2,-2.14825 4,-3.6809 4,-3.4059 0,0.275 -1.8,2.25765 -4,4.4059 -2.2,2.14824 -4,3.68089 -4,3.40589 z m -116.59501,-4.15589 -1.90499,-2.25 2.25,1.90498 c 1.2375,1.04775 2.25,2.06025 2.25,2.25 0,0.80026 -0.80479,0.20946 -2.59501,-1.90498 z"
         id="path3010"
         inkscape:connector-curvature="0" />
      <path
         style="fill:#f7f7f7"
         d="m 166.14284,149.1479 0,-56.000004 51,0 c 28.05,0 51,0.208777 51,0.463949 0,0.255172 -1.67946,1.605172 -3.73213,3 l -3.73214,2.536051 -44.26787,0 -44.26786,0 0,50.000004 0,50 54.5,0 54.5,0 0.0153,-40.25 c 0.008,-22.1375 0.34592,-40.7 0.75,-41.25 0.40408,-0.55 1.74719,-1.85725 2.98469,-2.90499 l 2.25001,-1.90499 0,46.15499 0,46.15499 -60.5,0 -60.5,0 0,-56 z m 387,43.5 c 0.68469,-0.825 1.46989,-1.5 1.74489,-1.5 0.275,0 -0.0602,0.675 -0.74489,1.5 -0.68469,0.825 -1.46989,1.5 -1.74489,1.5 -0.275,0 0.0602,-0.675 0.74489,-1.5 z m -182.59501,-14.75 -1.90499,-2.25 2.25,1.90499 c 1.2375,1.04774 2.25,2.06024 2.25,2.25 0,0.80025 -0.80479,0.20945 -2.59501,-1.90499 z m 84.09501,-4.75 c 0.99549,-1.1 2.03498,-2 2.30998,-2 0.275,0 -0.31449,0.9 -1.30998,2 -0.99549,1.1 -2.03498,2 -2.30998,2 -0.275,0 0.31449,-0.9 1.30998,-2 z m -242.09501,-3.25 -1.90499,-2.25 2.25,1.90498 c 2.11445,1.79022 2.70524,2.59502 1.90499,2.59502 -0.18976,0 -1.20226,-1.0125 -2.25,-2.25 z m 158.09501,-14.75 c 0.99549,-1.1 2.03498,-2 2.30998,-2 0.275,0 -0.31449,0.9 -1.30998,2 -0.99549,1.1 -2.03498,2 -2.30998,2 -0.275,0 0.31449,-0.9 1.30998,-2 z m 126.5,-5.05364 c 0,-0.275 3.15,-3.62587 7,-7.44636 3.85,-3.8205 7,-6.72137 7,-6.44637 0,0.275 -3.15,3.62587 -7,7.44637 -3.85,3.82049 -7,6.72136 -7,6.44636 z M 397.01528,136.3979 c -1.24387,-1.58606 -1.2085,-1.62143 0.37756,-0.37756 1.66575,1.30637 2.19548,2.12756 1.37244,2.12756 -0.20765,0 -0.99515,-0.7875 -1.75,-1.75 z m 123.12756,0.65589 c 0,-0.275 1.8,-2.25765 4,-4.40589 2.2,-2.14825 4,-3.6809 4,-3.4059 0,0.275 -1.8,2.25765 -4,4.4059 -2.2,2.14824 -4,3.68089 -4,3.40589 z m -116.59501,-4.15589 -1.90499,-2.25 2.25,1.90498 c 1.2375,1.04775 2.25,2.06025 2.25,2.25 0,0.80026 -0.80479,0.20946 -2.59501,-1.90498 z"
         id="path3008"
         inkscape:connector-curvature="0" />
      <path
         style="fill:#f5f5f5"
         d="m 166.14284,149.1479 0,-56.000004 51,0 c 28.05,0 51,0.208777 51,0.463949 0,0.255172 -1.67946,1.605172 -3.73213,3 l -3.73214,2.536051 -44.26787,0 -44.26786,0 0,50.000004 0,50 54.5,0 54.5,0 0.0153,-40.25 c 0.008,-22.1375 0.34592,-40.7 0.75,-41.25 0.40408,-0.55 1.74719,-1.85725 2.98469,-2.90499 l 2.25001,-1.90499 0,46.15499 0,46.15499 -60.5,0 -60.5,0 0,-56 z m 46.40499,20.75 -1.90499,-2.25 2.25,1.90498 c 2.11445,1.79022 2.70524,2.59502 1.90499,2.59502 -0.18976,0 -1.20226,-1.0125 -2.25,-2.25 z m 294.59501,-30.25 c 1.86578,-1.925 3.61733,-3.5 3.89233,-3.5 0.275,0 -1.02655,1.575 -2.89233,3.5 -1.86578,1.925 -3.61733,3.5 -3.89233,3.5 -0.275,0 1.02655,-1.575 2.89233,-3.5 z m 13,-2.62582 c 0,-0.275 1.35,-1.79338 3,-3.37418 1.65,-1.5808 3,-2.64919 3,-2.37419 0,0.275 -1.35,1.79339 -3,3.37419 -1.65,1.5808 -3,2.64918 -3,2.37418 z"
         id="path3006"
         inkscape:connector-curvature="0" />
      <path
         style="fill:#f0f0f0"
         d="m 166.14284,149.1479 0,-56.000004 51,0 c 28.05,0 51,0.208777 51,0.463949 0,0.255172 -1.67946,1.605172 -3.73213,3 l -3.73214,2.536051 -44.26787,0 -44.26786,0 0,50.000004 0,50 54.5,0 54.5,0 0.0153,-40.25 c 0.008,-22.1375 0.34592,-40.7 0.75,-41.25 0.40408,-0.55 1.74719,-1.85725 2.98469,-2.90499 l 2.25001,-1.90499 0,46.15499 0,46.15499 -60.5,0 -60.5,0 0,-56 z m 46.40499,20.75 -1.90499,-2.25 2.25,1.90498 c 2.11445,1.79022 2.70524,2.59502 1.90499,2.59502 -0.18976,0 -1.20226,-1.0125 -2.25,-2.25 z m 294.59501,-30.25 c 1.86578,-1.925 3.61733,-3.5 3.89233,-3.5 0.275,0 -1.02655,1.575 -2.89233,3.5 -1.86578,1.925 -3.61733,3.5 -3.89233,3.5 -0.275,0 1.02655,-1.575 2.89233,-3.5 z m 13,-2.62582 c 0,-0.275 1.35,-1.79338 3,-3.37418 1.65,-1.5808 3,-2.64919 3,-2.37419 0,0.275 -1.35,1.79339 -3,3.37419 -1.65,1.5808 -3,2.64918 -3,2.37418 z"
         id="path3004"
         inkscape:connector-curvature="0" />
      <path
         style="fill:#ededed"
         d="m 166.14284,149.1479 0,-56.000004 51,0 c 28.05,0 51,0.208777 51,0.463949 0,0.255172 -1.67946,1.605172 -3.73213,3 l -3.73214,2.536051 -44.26787,0 -44.26786,0 0,50.000004 0,50 54.5,0 54.5,0 0.0153,-40.25 c 0.008,-22.1375 0.34592,-40.7 0.75,-41.25 0.40408,-0.55 1.74719,-1.85725 2.98469,-2.90499 l 2.25001,-1.90499 0,46.15499 0,46.15499 -60.5,0 -60.5,0 0,-56 z m 341,-9.5 c 1.86578,-1.925 3.61733,-3.5 3.89233,-3.5 0.275,0 -1.02655,1.575 -2.89233,3.5 -1.86578,1.925 -3.61733,3.5 -3.89233,3.5 -0.275,0 1.02655,-1.575 2.89233,-3.5 z m 13,-2.62582 c 0,-0.275 1.35,-1.79338 3,-3.37418 1.65,-1.5808 3,-2.64919 3,-2.37419 0,0.275 -1.35,1.79339 -3,3.37419 -1.65,1.5808 -3,2.64918 -3,2.37418 z"
         id="path3002"
         inkscape:connector-curvature="0" />
      <path
         style="fill:#eaeaea"
         d="m 166.14284,149.1479 0,-56.000004 51,0 c 28.05,0 51,0.208777 51,0.463949 0,0.255172 -1.67946,1.605172 -3.73213,3 l -3.73214,2.536051 -44.26787,0 -44.26786,0 0,50.000004 0,50 54.5,0 54.5,0 0.0153,-40.25 c 0.008,-22.1375 0.34592,-40.7 0.75,-41.25 0.40408,-0.55 1.74719,-1.85725 2.98469,-2.90499 l 2.25001,-1.90499 0,46.15499 0,46.15499 -60.5,0 -60.5,0 0,-56 z m 341,-9.5 c 1.86578,-1.925 3.61733,-3.5 3.89233,-3.5 0.275,0 -1.02655,1.575 -2.89233,3.5 -1.86578,1.925 -3.61733,3.5 -3.89233,3.5 -0.275,0 1.02655,-1.575 2.89233,-3.5 z m 13,-2.62582 c 0,-0.275 1.35,-1.79338 3,-3.37418 1.65,-1.5808 3,-2.64919 3,-2.37419 0,0.275 -1.35,1.79339 -3,3.37419 -1.65,1.5808 -3,2.64918 -3,2.37418 z"
         id="path3000"
         inkscape:connector-curvature="0" />
      <path
         style="fill:#f2852f"
         d="m 166.14284,149.1479 0,-56.000004 51,0 c 28.05,0 51,0.208777 51,0.463949 0,0.255172 -1.67946,1.605172 -3.73213,3 l -3.73214,2.536051 -44.26787,0 -44.26786,0 0,50.000004 0,50 54.5,0 54.5,0 0.0153,-40.25 c 0.008,-22.1375 0.34592,-40.7 0.75,-41.25 0.40408,-0.55 1.74719,-1.85725 2.98469,-2.90499 l 2.25001,-1.90499 0,46.15499 0,46.15499 -60.5,0 -60.5,0 0,-56 z"
         id="path2998"
         inkscape:connector-curvature="0" />
    </g>
  </g>
</svg>
